<svg id="Layer_1" data-name="Layer 1" xmlns="http://www.w3.org/2000/svg" viewBox="0 0 1675.3 529.69"><defs><style>.cls-1{fill:#fd4a00;}</style></defs><polygon class="cls-1" points="21.56 71.51 188 71.51 188 140.22 21.62 306.6 21.56 257.98 139.33 140.22 21.56 140.22 21.56 71.51"/><polygon class="cls-1" points="21.62 356.07 306.19 71.51 387.16 71.51 387.16 432.63 300.59 432.63 300.59 136.46 21.56 417.69 21.62 356.07"/><path class="cls-1" d="M514.89,435.47q-16.87,0-29.84-6a47.36,47.36,0,0,1-20.36-17.4q-7.4-11.4-7.38-27.84v-5.49h25.1v5.49q0,14.55,8.86,21.72t23.62,7.18q15,0,22.57-6.12a19.39,19.39,0,0,0,7.59-15.82,15.61,15.61,0,0,0-3.58-10.65q-3.59-4.12-10.44-6.65A147.73,147.73,0,0,0,514.47,369l-6.33-1.27a119.22,119.22,0,0,1-25.21-8.54q-10.65-5.16-16.34-13.39t-5.7-21.52q0-13.29,6.33-22.78A40.25,40.25,0,0,1,485.15,287q11.6-5.06,27.21-5.06a69.6,69.6,0,0,1,27.84,5.28A43.2,43.2,0,0,1,559.5,303q7.07,10.55,7.07,26.36v7h-25.1v-7q0-9.06-3.59-14.55a20.64,20.64,0,0,0-10.12-8,42.77,42.77,0,0,0-15.4-2.53q-13.08,0-19.83,5.06t-6.75,14.35a16.31,16.31,0,0,0,3.06,10,22,22,0,0,0,9.07,6.75A77.38,77.38,0,0,0,513,345l6.33,1.48A136.2,136.2,0,0,1,545.9,355q11.39,5.17,17.82,13.61t6.44,21.93A40.79,40.79,0,0,1,563.3,414a45.67,45.67,0,0,1-19.19,15.82Q531.77,435.47,514.89,435.47Z"/><path class="cls-1" d="M1317.49,432.52V284.87H1343V409.53h69.19v23Z"/><path class="cls-1" d="M1023.45,327.9a27.48,27.48,0,0,0-12.68,2.77,17.89,17.89,0,0,0-5.36,4.42c-2.95,3.17-4,8.79-4.41,10.27l-6.29-.05a24.93,24.93,0,0,0,4.32-17H975.14v104.2H999.4V372.19q0-11.6,6.54-17.19t17.08-5.59h13.08V327.9Z"/><path class="cls-1" d="M839.21,115l-10.05,78.58a26.82,26.82,0,0,0-.25,6.39c.38,2,1,5.06,1,5.06h-8.23s.63-3.1,1-5.06a27.21,27.21,0,0,0-.26-6.39L808.62,115H769.81L756,193.54a27.21,27.21,0,0,0-.26,6.39c.38,2,1,5.06,1,5.06h-8.23s.63-3.1,1-5.06a26.82,26.82,0,0,0-.25-6.39l-10-78.58H715.18l16.24,104.2h40.29l14.15-80.63a27.33,27.33,0,0,0,.25-6.38c-.38-2-1-5.07-1-5.07h8.22s-.62,3.1-1,5.07.25,6.38.25,6.38l14.15,80.63H847L863.26,115Z"/><path class="cls-1" d="M1132.41,328.32a24.93,24.93,0,0,0,4.32,17l-6.3.05a20.76,20.76,0,0,0-4.61-9.39c-6.58-6.73-14-10.61-29-10.61a47.85,47.85,0,0,0-24,6.23,45.65,45.65,0,0,0-17.51,17.93q-6.54,11.7-6.54,28.16v3.16q0,16.46,6.54,28.16a45.65,45.65,0,0,0,17.51,17.93,47.84,47.84,0,0,0,24,6.22c16.18,0,23-5,27-8.75,1.64-1.51,6.85-6.08,8.91-13.66h5c-2.65,3.38-3.61,7.8-4,14.41v22.14q0,6.33-6.12,6.32h-61.8v21.1h70q10.13,0,16-6t5.9-16.35v-124Zm1.57,51.89q0,15-8.65,23.31t-21.73,8.33q-13.08,0-21.83-8.33T1073,380.21V378.1q0-15.19,8.75-23.41t21.83-8.23q13.29,0,21.84,8.23T1134,378.1Z"/><path class="cls-1" d="M1525.68,412.48q-5.91,0-5.91-6.33V365.23q0-19.39-11.7-29.63t-32.17-10.24q-13.5,0-22.78,4.12a39.75,39.75,0,0,0-14.87,10.86,43.27,43.27,0,0,0-7.93,14.45h25.32a22.5,22.5,0,0,1,3.91-4.85q5.39-4.95,15.93-5,10.76,0,15.82,5.17t5.06,13.39v6.33H1466.2a54.23,54.23,0,0,0-20.67,3.7,31.81,31.81,0,0,0-14.24,10.86q-5.18,7.17-5.17,17.72,0,10.75,5.17,18.13a32.76,32.76,0,0,0,14,11.29,48.65,48.65,0,0,0,19.82,3.9q11,0,17.4-3.06a29.39,29.39,0,0,0,6.86-4.41c1.62-1.59,7-7.21,8.47-13.88h3.76c-1.72,4.92.75,11.66,3.94,14.78,2.31,2.24,5.91,3.62,11.89,3.62h17.08v-20Zm-29.32-22.15q0,11.61-7.59,18.46t-19.62,6.86c-5.91,0-10.54-1.3-13.92-3.91a12.31,12.31,0,0,1-5.06-10.23q0-6.52,4.85-9.91t12.66-3.37h28.68Z"/><path class="cls-1" d="M1657.09,349.84a45.66,45.66,0,0,0-17.29-18.25,46.34,46.34,0,0,0-23.63-6.23c-12.43,0-17.81,2.15-24.47,6.13A25.78,25.78,0,0,0,1581,345.84l-5.9,0c2.45-3.29,3.75-12.08,3.75-24.22V284.87h-24.26V432.52H1579a24.74,24.74,0,0,0-4.19-18.09c1.23,0,5.91-.05,5.91-.05a27.52,27.52,0,0,0,4.75,9.12c7.14,8.42,16.63,12,30.71,12a46.49,46.49,0,0,0,23.52-6.22,45.38,45.38,0,0,0,17.4-18.25q6.54-12,6.54-28.89v-3.38Q1663.63,361.86,1657.09,349.84Zm-17.71,31.64q0,15.81-8.65,24.36T1609,414.38q-13.08,0-21.83-8.54t-8.75-24.36v-2.12q0-16,8.75-24.46t21.83-8.44q13.29,0,21.83,8.44t8.55,24.46Z"/><path class="cls-1" d="M694.1,137.32a45.78,45.78,0,0,0-17.72-18.67Q665,112,649.8,112q-15.39,0-27.21,6.65a46.38,46.38,0,0,0-18.35,18.67,53.72,53.72,0,0,0-5.77,18.35H572.81V71.51h-25.1V186.59c0,10.35,2.7,14.47,5.15,17.76h-7.64c-1-1.77-35.69-132.84-35.69-132.84H461V219.16h25.11V108.48c0-12.7-2.62-18.87-5.08-22.16h7.87c23.71,88.28,35.6,132.84,35.6,132.84h48.3V174H598a55.67,55.67,0,0,0,6.35,22.68,46.7,46.7,0,0,0,18.56,18.77q11.91,6.65,27.53,6.64,14.12,0,23.41-4.53a46.31,46.31,0,0,0,14.87-11,63.75,63.75,0,0,0,8.54-12.13H670c-.46.46-.89.93-1.38,1.37q-5.69,5.18-17.5,5.17-12,0-20.25-7.38T622.17,174h78.26v-8.65Q700.43,149.35,694.1,137.32Zm-55,18.35H622.38q1.68-10.33,8.65-16.45t18.56-6.12q11.17,0,18.25,6.12t7.91,16.45Z"/><path class="cls-1" d="M910.23,387.38h40v-8.65q0-16-6.32-28.05A45.85,45.85,0,0,0,926.21,332q-11.4-6.64-26.58-6.65-15.4,0-27.21,6.65a46.32,46.32,0,0,0-18.35,18.67A53.72,53.72,0,0,0,848.3,369H821.38a46.65,46.65,0,0,0-5.06-20.74,37.57,37.57,0,0,0-14.21-15c-5.41-3.21-13.75-5.4-24.4-5.4-6.4,0-19,.83-24.58,7.16-2.37,2.66-3.73,6-4.44,10.29l-6.27,0a23.91,23.91,0,0,0,3.92-9,24.2,24.2,0,0,0,.37-8H722.84V432.52h23.91v-52c0-2.16.34-4.2.34-6.15,0-21.73,14.78-26.26,26.93-26.26,9.87,0,23.5,3.3,23.5,24.73v59.68h23.91V387.38h26.68v2.27a54.63,54.63,0,0,0,6.06,20.41,46.79,46.79,0,0,0,18.57,18.77q11.91,6.65,27.52,6.64,14.13,0,23.41-4.53a46.25,46.25,0,0,0,14.88-11,64.28,64.28,0,0,0,8.35-11.79H919.44c-.35.34-.67.7-1,1q-5.7,5.18-17.5,5.17-12,0-20.25-7.38T872,387.38h38.23Zm-38-18.35q1.68-10.33,8.65-16.45t18.56-6.12q11.18,0,18.24,6.12T925.57,369H872.21Z"/><path class="cls-1" d="M699,348.78V328.32H674.92V378.1h1.41C684.68,372.4,695.6,356.5,699,348.78Z"/><path class="cls-1" d="M667.76,405.75c-6.11,4.6-12.84,8-20.68,8q-11.4,0-17.62-6.12t-6.22-18.77V328.32h-24v62.44q0,13.08,5.07,22.88a36.45,36.45,0,0,0,14.34,15.19,41.77,41.77,0,0,0,21.3,5.38c15.72,0,22.74-5.08,25.85-8.28,1.18-1.21,6.79-7.23,8.59-13.85h5c-4,5.16-4.19,12.6-4.19,26.74v8.47q0,6.33-5.91,6.32H611.64v21.1H677q10.13,0,16-6T699,452.35V372.11h-1.28c-2.91,5-5.45,9.73-14,19.4A98.4,98.4,0,0,1,667.76,405.75Z"/><path class="cls-1" d="M1287.54,348.78V328.32h-24V378.1h1.41C1273.25,372.4,1284.17,356.5,1287.54,348.78Z"/><path class="cls-1" d="M1256.34,405.75c-6.12,4.6-12.85,8-20.69,8q-11.4,0-17.61-6.12t-6.23-18.77V328.32h-24v62.44q0,13.08,5.06,22.88a36.45,36.45,0,0,0,14.34,15.19,41.78,41.78,0,0,0,21.31,5.38c15.71,0,22.73-5.08,25.84-8.28,1.19-1.21,6.79-7.23,8.59-13.85h5c-4,5.16-4.19,12.6-4.19,26.74v8.47q0,6.33-5.9,6.32h-57.59v21.1h65.39q10.13,0,16-6t5.91-16.35V372.11h-1.28c-2.9,5-5.44,9.73-14,19.4A98.77,98.77,0,0,1,1256.34,405.75Z"/></svg>