<svg id="Layer_1" data-name="Layer 1" xmlns="http://www.w3.org/2000/svg" viewBox="0 0 1271.61 458.31"><defs><style>.cls-1{fill:#fd4a00;}</style></defs><path class="cls-1" d="M96.9,390.2q-16.87,0-29.84-6a47.43,47.43,0,0,1-20.36-17.4q-7.38-11.4-7.38-27.85v-5.48h25.1v5.48q0,14.55,8.86,21.73t23.62,7.17q15,0,22.57-6.11a19.39,19.39,0,0,0,7.6-15.83,15.63,15.63,0,0,0-3.59-10.65A25,25,0,0,0,113,328.61a147.73,147.73,0,0,0-16.56-4.85l-6.33-1.27A119.69,119.69,0,0,1,65,314q-10.66-5.18-16.35-13.4T42.91,279q0-13.29,6.32-22.78A40.31,40.31,0,0,1,67.16,241.7q11.61-5.05,27.21-5.06a69.86,69.86,0,0,1,27.85,5.27,43.37,43.37,0,0,1,19.3,15.82q7.06,10.56,7.06,26.37v7h-25.1v-7q0-9.06-3.58-14.56a20.7,20.7,0,0,0-10.13-8A42.52,42.52,0,0,0,94.37,259q-13.08,0-19.82,5.06T67.8,278.41a16.23,16.23,0,0,0,3.06,10,21.78,21.78,0,0,0,9.06,6.75A78,78,0,0,0,95,299.71l6.34,1.47a136.75,136.75,0,0,1,26.57,8.55q11.4,5.17,17.83,13.61t6.43,21.93a40.75,40.75,0,0,1-6.86,23.41,45.53,45.53,0,0,1-19.19,15.82Q113.78,390.2,96.9,390.2Z"/><path class="cls-1" d="M899.5,387.25V239.59H925V364.26h69.18v23Z"/><path class="cls-1" d="M605.46,282.62a27.28,27.28,0,0,0-12.67,2.78,17.65,17.65,0,0,0-5.36,4.42c-3,3.17-4,8.78-4.41,10.27l-6.3,0a24.9,24.9,0,0,0,4.32-17H557.16v104.2h24.25V326.92q0-11.6,6.54-17.19T605,304.14h13.07V282.62Z"/><path class="cls-1" d="M421.22,69.69l-10.05,78.58a27.33,27.33,0,0,0-.25,6.38c.38,2,1,5.07,1,5.07H403.7s.62-3.1,1-5.07-.25-6.38-.25-6.38L390.64,69.69H351.83L338,148.27s-.65,4.32-.25,6.38,1,5.07,1,5.07h-8.22s.62-3.1,1-5.07a27.15,27.15,0,0,0-.26-6.38l-10-78.58H297.19l16.25,104.2h40.28l14.15-80.63a26.82,26.82,0,0,0,.25-6.39c-.38-2-1-5.06-1-5.06h8.22s-.62,3.1-1,5.06a27.21,27.21,0,0,0,.26,6.39l14.14,80.63H429l16.24-104.2Z"/><path class="cls-1" d="M714.42,283.05a24.89,24.89,0,0,0,4.33,17l-6.3,0a20.78,20.78,0,0,0-4.62-9.39c-6.58-6.73-14-10.61-29-10.61a47.88,47.88,0,0,0-24,6.23,45.76,45.76,0,0,0-17.51,17.92q-6.54,11.72-6.53,28.17v3.16q0,16.46,6.53,28.16a45.78,45.78,0,0,0,17.51,17.93,47.88,47.88,0,0,0,24,6.22c16.18,0,23-5.05,27-8.75a28.74,28.74,0,0,0,8.9-13.67h5c-2.64,3.39-3.61,7.81-4,14.42V402q0,6.33-6.12,6.33h-61.8v21.09h70q10.13,0,16-6t5.91-16.35v-124ZM716,334.94q0,15-8.65,23.3t-21.72,8.34q-13.08,0-21.83-8.34T655,334.94v-2.12q0-15.18,8.76-23.41t21.83-8.23q13.29,0,21.83,8.23T716,332.82Z"/><path class="cls-1" d="M1107.7,367.21q-5.91,0-5.91-6.33V320q0-19.41-11.71-29.64t-32.16-10.23q-13.51,0-22.79,4.12a39.83,39.83,0,0,0-14.87,10.86,43.35,43.35,0,0,0-7.93,14.45h25.32a22.07,22.07,0,0,1,3.92-4.85q5.37-5,15.92-5,10.76,0,15.82,5.17t5.07,13.39v6.33h-30.17a54.46,54.46,0,0,0-20.67,3.69,31.88,31.88,0,0,0-14.24,10.87q-5.17,7.17-5.17,17.71,0,10.77,5.17,18.14a32.82,32.82,0,0,0,14,11.29,48.67,48.67,0,0,0,19.83,3.9q11,0,17.4-3.06a29.31,29.31,0,0,0,6.85-4.41c1.63-1.59,7-7.21,8.47-13.89h3.76c-1.72,4.92.75,11.67,3.95,14.78,2.3,2.25,5.9,3.63,11.88,3.63h17.08v-20Zm-29.32-22.15q0,11.61-7.6,18.46t-19.61,6.85c-5.91,0-10.55-1.29-13.93-3.9a12.31,12.31,0,0,1-5.06-10.23q0-6.54,4.85-9.91c3.24-2.25,7.45-3.38,12.66-3.38h28.69Z"/><path class="cls-1" d="M1239.11,304.56a45.72,45.72,0,0,0-17.3-18.24,46.33,46.33,0,0,0-23.62-6.23c-12.44,0-17.82,2.14-24.48,6.13a25.73,25.73,0,0,0-10.7,14.35s-4.68-.05-5.91-.05c2.45-3.29,3.75-12.07,3.75-24.21V239.59h-24.26V387.25H1161a24.79,24.79,0,0,0-4.18-18.09c1.22,0,5.9,0,5.9,0a27.3,27.3,0,0,0,4.76,9.11c7.13,8.43,16.63,12,30.71,12a46.65,46.65,0,0,0,23.52-6.22,45.44,45.44,0,0,0,17.4-18.25q6.53-12,6.54-28.9v-3.37Q1245.65,316.58,1239.11,304.56Zm-17.72,31.64q0,15.82-8.65,24.36T1191,369.11q-13.1,0-21.84-8.55t-8.75-24.36v-2.11q0-16,8.75-24.47t21.84-8.44q13.27,0,21.83,8.44t8.54,24.47Z"/><path class="cls-1" d="M276.11,92a45.82,45.82,0,0,0-17.72-18.66Q247,66.74,231.81,66.73q-15.39,0-27.21,6.65A46.48,46.48,0,0,0,186.25,92a54,54,0,0,0-5.77,18.36H154.83V26.23H129.72V141.32c0,10.34,2.71,14.46,5.16,17.75h-7.64c-1-1.76-35.69-132.84-35.69-132.84H43V173.89h25.1V63.21c0-12.71-2.62-18.87-5.07-22.16h7.86c23.71,88.28,35.6,132.84,35.6,132.84h48.31V128.75H180a55.46,55.46,0,0,0,6.34,22.67,46.79,46.79,0,0,0,18.56,18.78q11.91,6.65,27.53,6.64,14.13,0,23.41-4.54a46.08,46.08,0,0,0,14.87-11,64.15,64.15,0,0,0,8.55-12.13H252c-.46.46-.89.93-1.37,1.37q-5.7,5.17-17.51,5.17-12,0-20.25-7.38t-8.65-19.62h78.26V120.1Q282.44,104.07,276.11,92Zm-55,18.36H204.39q1.7-10.34,8.65-16.46t18.57-6.12q11.17,0,18.24,6.12t7.91,16.46Z"/><path class="cls-1" d="M492.24,342.11h40v-8.65q0-16-6.33-28.06a45.82,45.82,0,0,0-17.72-18.66q-11.39-6.64-26.58-6.65-15.39,0-27.21,6.65a46.48,46.48,0,0,0-18.35,18.66,54,54,0,0,0-5.77,18.36H403.4A46.65,46.65,0,0,0,398.33,303a37.5,37.5,0,0,0-14.21-15c-5.4-3.21-13.75-5.41-24.39-5.41-6.4,0-19,.84-24.59,7.16-2.36,2.67-3.72,6-4.44,10.3l-6.26,0a24.8,24.8,0,0,0,4.29-17H304.85V387.25h23.91v-52c0-2.17.34-4.2.34-6.16,0-21.72,14.78-26.26,26.93-26.26,9.87,0,23.5,3.31,23.5,24.73v59.69h23.91V342.11h26.68v2.27a54.34,54.34,0,0,0,6.07,20.4,46.73,46.73,0,0,0,18.56,18.78q11.91,6.65,27.53,6.64,14.12,0,23.41-4.54a46.18,46.18,0,0,0,14.87-11,64.18,64.18,0,0,0,8.35-11.8H501.45c-.35.35-.67.71-1,1q-5.7,5.18-17.51,5.17-12,0-20.25-7.39T454,342.11h38.23Zm-38-18.35q1.68-10.33,8.65-16.46t18.56-6.12q11.18,0,18.25,6.12t7.91,16.46H454.22Z"/><path class="cls-1" d="M281,303.51V283.05H256.93v49.77h1.41C266.7,327.13,277.62,311.22,281,303.51Z"/><path class="cls-1" d="M249.78,360.48c-6.12,4.6-12.85,8-20.69,8q-11.39,0-17.61-6.11t-6.22-18.78V283.05h-24v62.43q0,13.08,5.06,22.89a36.54,36.54,0,0,0,14.35,15.19,41.75,41.75,0,0,0,21.3,5.38c15.72,0,22.74-5.09,25.85-8.28,1.18-1.22,6.79-7.23,8.58-13.85h5c-4,5.15-4.18,12.59-4.18,26.74V402q0,6.33-5.91,6.33H193.65v21.09H259q10.13,0,16-6T281,407.07V326.83H279.7c-2.9,5-5.44,9.74-14,19.41A98.77,98.77,0,0,1,249.78,360.48Z"/><path class="cls-1" d="M869.55,303.51V283.05h-24v49.77h1.42C855.27,327.13,866.19,311.22,869.55,303.51Z"/><path class="cls-1" d="M838.35,360.48c-6.12,4.6-12.85,8-20.69,8q-11.38,0-17.61-6.11t-6.22-18.78V283.05H769.78v62.43q0,13.08,5.06,22.89a36.54,36.54,0,0,0,14.35,15.19,41.75,41.75,0,0,0,21.3,5.38c15.72,0,22.74-5.09,25.85-8.28,1.18-1.22,6.79-7.23,8.58-13.85h5c-4,5.15-4.19,12.59-4.19,26.74V402q0,6.33-5.91,6.33H782.22v21.09h65.4q10.13,0,16-6t5.9-16.35V326.83h-1.28c-2.9,5-5.44,9.74-14,19.41A98.77,98.77,0,0,1,838.35,360.48Z"/></svg>